<?xml version="1.0" encoding="UTF-8"?><svg id="Layer_2" xmlns="http://www.w3.org/2000/svg" xmlns:xlink="http://www.w3.org/1999/xlink" viewBox="0 0 626.09 296.6"><defs><style>.cls-1{filter:url(#drop-shadow-1);}.cls-2{fill:#fff;}</style><filter id="drop-shadow-1" x="0" y="0" width="636.51" height="268.83" filterUnits="userSpaceOnUse"><feOffset dx="10.43" dy="10.43"/><feGaussianBlur result="blur" stdDeviation="0"/><feFlood flood-color="#10131b" flood-opacity="1"/><feComposite in2="blur" operator="in"/><feComposite in="SourceGraphic"/></filter></defs><g id="Layer_26"><g class="cls-1"><path class="cls-2" d="M25.7,127.34c17.46,3.06,23.89,46.3,34.92,45.78,2.76-.14,4.96-3.93,5.7-9.49,6.06-41.77,31.43-86.14,82.71-91.38,9.19-.95,19.85-1.02,27.94,2.63,23.89,11.32,10.66,36.06-1.1,37.44-1.84.21-3.68-.13-5.33-1.23-9-6.34-16.36-9.21-28.49-7.99-15.44,1.57-33.08,10.78-40.8,30.65-10.84,27.86-22.05,78.93-18.01,103.11,2.02,12.36-8.64,18.96-18.38,19.47-9.37.5-18.01-4.31-14.89-13.81,10.66-31.52-6.98-58.31-12.68-56.51-7.72,2.44-1.1,35.14-3.31,53.22-1.47,12.91-11.39,19.07-20.22,19.17-9.19.12-17.09-6.54-12.31-18.66,13.78-34.62,9.92-76.89,4.23-91.91-6.06-15.96,9.56-22.43,20.03-20.5Z"/><path class="cls-2" d="M139.28,120.28c23.89-2.4,32.53,11.4,35.29,35.92,3.49,28.45,2.02,70.18-9.74,84.54-8.64,10.72-27.02,10.24-39.33,11.34-26.1,2.32-30.51-15.54-28.49-38.06,1.1-11.84,7.35-27.03,5.51-37.18-4.41-27.06,13.42-54.25,36.76-56.56ZM124.39,172.79c2.21,20.57-4.04,24.63-1.29,36.14,1.84,7.74,8.45,11.54,14.34,10.97,2.76-.27,5.51-1.65,7.53-3.88,8.27-9.48,10.29-38.75,7.9-55.04-1.65-11.77-9.74-16.08-14.89-15.58-6.8.67-15.44,8.99-13.6,27.38Z"/><path class="cls-2" d="M247.9,149.55c-1.29.18-2.57.17-4.04,0-7.72-1.34-16.17-2.05-22.6-1.22-6.98.91-11.4,3.67-10.11,9.94,1.84,9.24,54.03,7.9,54.03,43.11,0,25.36-20.59,42.59-41.17,45.28-8.27,1.09-25.18,3.25-36.76-9.9-9.56-11-2.76-30.9,7.9-32.2,2.39-.29,4.96.31,7.53,2.19,7.35,5.33,16.17,7.69,22.61,6.84,5.15-.68,8.82-3.19,9.56-8.07,1.84-13.76-45.95-12.23-47.97-41.13-1.29-19.51,11.58-34.46,23.71-42.08,4.59-2.97,11.58-6.26,19.85-7.36,5.7-.76,11.95-.49,18.56,1.54,15.81,4.81,13.6,31.03-1.1,33.05Z"/><path class="cls-2" d="M275.83,68.25c-11.95,1.68-25,16.34-25.73,28.2-.37,6.11-7.35,10.38-14.7,11.36-11.21,1.51-23.53-4.45-15.99-22.52,4.59-10.7,18.01-25.5,36.76-33.24,11.95-4.77,23.16-7.82,34.55-9.44,18.19-2.58,36.94-1.97,59.18-.51,3.49.24,7.17.1,10.66-.39,18.38-2.57,35.1-14.53,38.04-33.11.92-5.08,4.96-7.82,9.92-8.47,12.5-1.62,30.32,10.53,12.31,31.33-16.73,19.55-37.86,29.55-56.79,32.19-5.33.74-10.48.91-15.25.48-7.54-.59-15.07-.99-21.32-.1-10.48,1.49-17.46,6.53-14.89,19.03,6.62,29.93,3.49,99.12-2.76,114.53-2.76,7.19-9.19,11.6-15.25,12.47-5.88.84-11.4-1.51-13.42-7.84-6.06-17.89,13.78-97.16,6.25-125.86-1.84-6.17-4.96-9.04-11.58-8.11Z"/><path class="cls-2" d="M354.86,205.9c-2.39,5.3-9.56,9.61-16.54,10.6-6.25.89-12.31-1.01-14.52-7.31-4.41-13.15,5.7-78.02,25-111.43,5.88-10.2,14.34-15.98,22.42-17.09,6.62-.91,13.05,1.34,17.46,6.63,11.21,13.57,13.05,54.69,14.34,78.05,1.1,20.82,6.25,43.07,25.55,50.6,3.49,1.41,9.37,2.34,15.44,1.63,6.98-.82,14.15-3.84,18.56-10.75,2.2-3.55,5.33-5.36,8.82-5.73,12.87-1.36,29.04,16.57,9.56,30.62-9.01,6.61-20.4,10.23-32.53,11.64-10.84,1.26-22.06.61-32.35-1.39-25.92-5.15-46.13-33.73-41.72-61.92,1.47-9.21-1.84-12.06-5.88-11.5-3.86.53-8.64,4.51-10.11,8.94-3.68,10.07-1.65,23.94-3.49,28.42ZM358.9,137.7c-.92,9.32.92,15.12,7.9,13.05,5.33-1.47,7.54-2.88,8.82-10.22,2.02-10.93,3.31-37.03-7.54-32.78-4.59,1.74-7.53,16.67-9.19,29.95Z"/><path class="cls-2" d="M435.72,61.55c10.66-1.29,21.5,5.03,15.81,18.36-11.03,26.45-14.34,46.9-13.05,63.65.73,11.31,4.04,14.96,9,14.38,3.31-.38,7.17-2.48,11.76-5.38,4.04-2.66,8.09-4.38,11.76-4.77,5.7-.61,10.48,2.03,13.23,9.84,5.7,16.54-10.66,26.91-30.69,31.96-14.15,3.44-31.61,1.02-38.96-13.66-8.64-17.09,7.72-56.31,4.41-95.58-.92-11.46,7.9-17.73,16.72-18.79Z"/><path class="cls-2" d="M572.1,50.36c-2.02,21.04-12.5,16.92-25.18,17.72-6.06.38-12.68,1.94-19.11,7.94-20.03,18.74-14.89,65.56,14.89,60.15,5.51-.91,9.37-4.45,10.84-8.58,1.29-3.38-.55-4.56-3.31-4.4-2.21.13-4.78,1.03-7.17,2.29-1.1.62-2.02.87-3.12.94-6.98.47-14.15-8.53-14.15-16.25,0-16.18,16.17-19.8,27.75-20.45,18.01-1.04,27.75,12.64,27.75,30.27,0,25.53-23.89,44.63-47.42,46.37-62.67,5.26-64.33-84.34-4.23-123.2,7.17-4.39,15.81-8.29,23.89-8.76,9.56-.57,19.67,3.95,18.56,15.95Z"/><path class="cls-2" d="M605.18,4.07c7.9-1.23,5.15,9.11,9.01,12.55.74.73,4.04-.41,6.8-.42,2.02,0,3.68.36,4.41,2.19,2.21,5.33-1.29,10.66-4.23,13.06-4.6,3.51,2.94,3.84,3.12,8.63.37,3.31-3.31,8.45-8.27,8.5-1.65.01-3.31-.52-5.15-1.78-4.04-2.7-2.94-7.49-4.78-6.54-1.47.58-1.84,5.55-5.15,8.01-1.29.95-2.76,1.35-4.41,1.39-4.78.12-9.74-3.2-8.82-8.2.92-5,6.06-6.62,3.86-7.1-7.53-1.61-9.19-6.12-7.72-10.59,2.76-8.38,12.13-4.43,13.42-8.68,1.47-4.63,3.12-10.37,7.9-11.02ZM604.44,55.73c10.29-.2,20.77,7.33,15.81,20.02-16.17,41.68-6.62,69.17-3.31,91.92,1.84,12.85-7.35,19.15-16.54,19.37-9.56.21-18.93-6.04-15.81-18.66,8.64-34.66,3.31-65.54,2.76-95.48-.18-11.57,8.45-17.01,17.09-17.17ZM602.05,30.78c.37.91,1.84,1.43,3.31,1.4,1.47-.03,2.94-.6,3.31-1.71.55-1.85.92-3.87.18-5.52-.92-1.82-1.84-2.18-3.68-2.33-2.2-.14-3.49,1.54-4.04,3.39-.55,1.85.37,3.48.92,4.76Z"/></g><path class="cls-2" d="M268.51,276.12c-.88-.55-1.57-1.29-2.07-2.21-.5-.92-.73-1.91-.7-2.98.03-1.04.31-2,.85-2.88.54-.88,1.27-1.58,2.18-2.09.91-.51,1.9-.75,2.96-.72,1.04.03,2,.32,2.88.87s1.58,1.29,2.09,2.19c.51.91.75,1.88.72,2.92-.03,1.06-.32,2.04-.87,2.94s-1.29,1.6-2.19,2.1c-.91.51-1.88.75-2.92.72-1.06-.03-2.04-.32-2.92-.87Z"/><path class="cls-2" d="M316.05,266.28l-19.69-1.5-.29,3.8c1.23.12,3.07.27,5.53.46,4.25.32,8.57.58,12.97.77l-.54,7.09c-4.38-.5-9-.94-13.88-1.31-2.03-.15-3.56-.26-4.6-.31l-.68,9.01-8.54-.65c.55-4.67.98-9.04,1.29-13.11s.55-8.46.71-13.16l28.22,2.14-.51,6.77Z"/><path class="cls-2" d="M333.65,281.15c9.15.93,15.79,1.51,19.92,1.73-.27.97-.48,1.97-.63,3.02-.15,1.04-.31,2.36-.48,3.95l-28.04-3c.69-4.65,1.26-9,1.69-13.07.43-4.06.81-8.44,1.11-13.13l28.04,3-.7,6.53-19.52-2.09-.37,3.46c1.15.15,2.86.34,5.12.59,3.82.41,7.79.76,11.89,1.05l-.66,6.21c-4.08-.58-8.02-1.08-11.85-1.49-2.26-.24-3.97-.41-5.13-.51l-.4,3.75Z"/><path class="cls-2" d="M366.03,284.72c.64-1.01,1.28-2.19,1.92-3.54,1.62,1.15,3.53,2.11,5.74,2.87,2.21.77,4.29,1.24,6.25,1.42,2,.19,3.42.15,4.28-.13.85-.27,1.3-.61,1.34-1.02.14-1.47-2.03-2.41-6.51-2.84-4.91-.46-8.43-1.31-10.55-2.54s-3.07-2.99-2.86-5.28c.31-3.25,1.88-5.52,4.72-6.81s6.42-1.73,10.73-1.33c2.5.23,5.05.8,7.62,1.68,2.58.89,4.87,1.98,6.89,3.29-.85,1.52-1.76,3.39-2.75,5.61-.19.47-.34.82-.46,1.05-1.14-1.1-2.91-2.1-5.33-3-2.42-.9-4.58-1.43-6.48-1.61-2.29-.21-3.84-.21-4.67.02-.82.23-1.26.63-1.32,1.21-.05.58.45,1.09,1.51,1.55,1.06.45,2.63.78,4.7.97,5.11.48,8.76,1.41,10.96,2.8,2.2,1.39,3.19,3.28,2.96,5.69-.32,3.37-1.77,5.68-4.37,6.93-2.59,1.25-6.39,1.64-11.37,1.17-2.67-.25-5.37-.8-8.08-1.65-2.71-.85-5.13-1.94-7.24-3.29.93-1.15,1.72-2.23,2.36-3.24Z"/><path class="cls-2" d="M435.36,277.78c-3.79-.34-7.47-.62-11.04-.85l-1.09,18.91-9.06-.52,1.09-18.91c-3.6-.18-7.28-.32-11.03-.42l.44-7.61,31.12,1.8-.44,7.61Z"/><path class="cls-2" d="M468.04,275.51c-2.88.14-5.01.26-6.38.37l1.21,12.35c1.39-.16,3.51-.45,6.33-.88l.7,7.19-20.98,2.05-.7-7.19c2.78-.13,4.9-.25,6.35-.37l-1.21-12.35c-1.44.17-3.54.46-6.3.87l-.7-7.19,20.98-2.06.7,7.19Z"/><path class="cls-2" d="M507.72,257.43l-.66,6.01c-.57,5.31-1,9.56-1.3,12.73-.29,3.18-.48,6.37-.55,9.58l-10.37,3.18c-1.83-2.58-3.74-5.1-5.75-7.55-2.01-2.46-4.64-5.59-7.91-9.4-.55-.64-2-2.34-4.33-5.09l9.65-2.96c1.38,2.03,3.29,4.6,5.74,7.69,2.15,2.73,3.95,5.12,5.38,7.16,0-1.74.06-3.63.18-5.65.13-2.02.2-3.26.22-3.69.26-3.95.4-7,.42-9.16l9.3-2.85Z"/><path class="cls-2" d="M546.6,267.79c-1.03-1.02-2.37-2.29-4-3.79l-10.33,5.23.73,5.45-8.12,4.12-2.84-28.09,11.91-6.04,21.04,18.88-8.38,4.25ZM538.2,259.88c-1.97-1.85-3.96-3.69-5.97-5.52l-1.84-1.71c.24,2.35.63,5.88,1.18,10.59l6.64-3.36Z"/><path class="cls-2" d="M568.96,245.52c5.71-4.07,10.4-7.51,14.05-10.31.45,1.19.98,2.27,1.57,3.25.59.97,1.36,2.12,2.29,3.45l-20.94,14.7c-2.54-3.95-4.98-7.6-7.33-10.95-2.35-3.35-4.95-6.88-7.81-10.61l7.25-5.09,10.93,15.56Z"/><path class="cls-2" d="M595.2,225.87c-1.02.19-2.03.12-3.02-.22s-1.83-.91-2.54-1.71c-.69-.78-1.13-1.68-1.33-2.7-.2-1.02-.14-2.02.18-3.01.32-.99.88-1.84,1.68-2.54.78-.69,1.69-1.12,2.71-1.31,1.02-.19,2.03-.12,3.02.2.99.32,1.83.87,2.51,1.66.7.8,1.15,1.72,1.35,2.75.2,1.03.14,2.05-.19,3.04s-.87,1.83-1.66,2.51c-.8.7-1.71,1.15-2.74,1.34Z"/></g></svg>